<svg width="23" height="23" viewBox="0 0 23 23" fill="none" xmlns="http://www.w3.org/2000/svg">
<path d="M20.4444 0.48877H2.55556C1.15 0.48877 0 1.58877 0 2.93321V20.0443C0 21.39 1.15 22.4888 2.55556 22.4888H11.5V13.9332H8.94444V10.9082H11.5V8.40266C11.5 5.75777 13.0487 3.89999 16.3121 3.89999L18.6159 3.90244V7.08632H17.0864C15.8163 7.08632 15.3333 7.9981 15.3333 8.84388V10.9094H18.6147L17.8889 13.9332H15.3333V22.4888H20.4444C21.85 22.4888 23 21.39 23 20.0443V2.93321C23 1.58877 21.85 0.48877 20.4444 0.48877Z" fill="white" fill-opacity="0.71"/>
</svg>
