<svg width="21" height="23" viewBox="0 0 21 23" fill="none" xmlns="http://www.w3.org/2000/svg">
<path d="M10.4972 5.84471C7.51584 5.84471 5.10976 8.36541 5.10976 11.4888C5.10976 14.6121 7.51584 17.1328 10.4972 17.1328C13.4785 17.1328 15.8846 14.6121 15.8846 11.4888C15.8846 8.36541 13.4785 5.84471 10.4972 5.84471ZM10.4972 15.157C8.56916 15.157 6.99575 13.5086 6.99575 11.4888C6.99575 9.4689 8.56916 7.82054 10.4972 7.82054C12.4252 7.82054 13.9986 9.4689 13.9986 11.4888C13.9986 13.5086 12.4252 15.157 10.4972 15.157ZM16.1052 4.29816C15.4092 4.29816 14.847 4.88706 14.847 5.6163C14.847 6.34554 15.4092 6.93444 16.1052 6.93444C16.8013 6.93444 17.3634 6.3483 17.3634 5.6163C17.3636 5.44314 17.3312 5.27164 17.2681 5.11161C17.2049 4.95159 17.1123 4.80619 16.9954 4.68375C16.8785 4.56131 16.7397 4.46422 16.587 4.39806C16.4342 4.33189 16.2705 4.29794 16.1052 4.29816ZM20.9988 11.4888C20.9988 9.96974 21.012 8.46448 20.9305 6.9482C20.8491 5.18701 20.4656 3.62396 19.2363 2.33609C18.0044 1.04546 16.515 0.646444 14.8339 0.561136C13.3839 0.475829 11.9471 0.489588 10.4998 0.489588C9.04985 0.489588 7.61303 0.475829 6.16571 0.561136C4.4846 0.646444 2.99262 1.04822 1.76331 2.33609C0.53138 3.62671 0.150505 5.18701 0.0690761 6.9482C-0.0123524 8.46723 0.000781304 9.9725 0.000781304 11.4888C0.000781304 13.005 -0.0123524 14.5131 0.0690761 16.0293C0.150505 17.7905 0.534007 19.3536 1.76331 20.6415C2.99525 21.9321 4.4846 22.3311 6.16571 22.4164C7.61566 22.5017 9.05248 22.488 10.4998 22.488C11.9498 22.488 13.3866 22.5017 14.8339 22.4164C16.515 22.3311 18.007 21.9293 19.2363 20.6415C20.4682 19.3508 20.8491 17.7905 20.9305 16.0293C21.0146 14.5131 20.9988 13.0078 20.9988 11.4888ZM18.6873 17.9777C18.4956 18.4785 18.2644 18.8527 17.894 19.238C17.5237 19.626 17.1691 19.8682 16.691 20.0691C15.3093 20.6442 12.0286 20.5149 10.4972 20.5149C8.9658 20.5149 5.68239 20.6442 4.30073 20.0718C3.82267 19.8709 3.46543 19.6288 3.09769 19.2408C2.72732 18.8527 2.49617 18.4812 2.30442 17.9804C1.75806 16.5302 1.88152 13.0931 1.88152 11.4888C1.88152 9.88444 1.75806 6.44461 2.30442 4.99713C2.49617 4.49629 2.72732 4.12204 3.09769 3.73678C3.46806 3.35152 3.82267 3.10661 4.30073 2.90572C5.68239 2.33333 8.9658 2.46267 10.4972 2.46267C12.0286 2.46267 15.312 2.33333 16.6936 2.90572C17.1717 3.10661 17.5289 3.34877 17.8967 3.73678C18.267 4.12479 18.4982 4.49629 18.6899 4.99713C19.2363 6.44461 19.1128 9.88444 19.1128 11.4888C19.1128 13.0931 19.2363 16.5302 18.6873 17.9777Z" fill="white" fill-opacity="0.71"/>
</svg>
