<svg width="23" height="23" viewBox="0 0 23 23" fill="none" xmlns="http://www.w3.org/2000/svg">
<path d="M4.9647 2.80047C4.9647 4.11859 4.08347 5.25303 2.48111 5.25303C0.973081 5.25303 0 4.18313 0 2.86501C0 1.51213 0.943293 0.318115 2.48235 0.318115C4.02141 0.318115 4.93491 1.44758 4.9647 2.80047ZM0 22.6593V6.52399H4.9647V22.6593H0Z" fill="white" fill-opacity="0.71"/>
<path d="M7.4474 12.0397C7.4474 10.1221 7.3841 8.51971 7.3208 7.1358H11.7816L12.0025 9.27434H12.0968C12.7249 8.26775 14.2639 6.79199 16.8406 6.79199C19.9833 6.79199 22.3415 8.89578 22.3415 13.4224V22.6592H17.3768V14.1435C17.3768 12.165 16.6234 10.6558 14.8945 10.6558C13.5763 10.6558 12.916 11.7232 12.5697 12.6032C12.4431 12.9184 12.4121 13.3578 12.4121 13.7984V22.6592H7.4474V12.0397Z" fill="white" fill-opacity="0.71"/>
</svg>
