<svg width="23" height="23" viewBox="0 0 23 23" fill="none" xmlns="http://www.w3.org/2000/svg">
<path d="M11.3419 0.48877C5.29161 0.48877 0.341309 5.43907 0.341309 11.4893C0.341309 17.5385 5.29161 22.4888 11.3419 22.4888C17.391 22.4888 22.3413 17.5385 22.3413 11.4893C22.3413 5.43907 17.4461 0.48877 11.3419 0.48877ZM16.4012 16.3835C16.1821 16.7127 15.7967 16.8239 15.4653 16.6048C12.8789 15.0083 9.63414 14.6779 5.78378 15.5577C5.40062 15.67 5.0703 15.3947 4.9602 15.0633C4.84899 14.6779 5.12425 14.3498 5.45567 14.2386C9.63414 13.3027 13.2654 13.6892 16.1248 15.4498C16.5102 15.6138 16.5652 16.0532 16.4012 16.3835ZM17.7224 13.3589C17.4461 13.7432 16.9517 13.9083 16.5652 13.6331C13.5957 11.8207 9.08692 11.268 5.62193 12.3691C5.18371 12.4803 4.68604 12.259 4.57703 11.8207C4.46583 11.3781 4.68714 10.8826 5.12645 10.7725C9.14087 9.56359 14.0923 10.1692 17.5011 12.2601C17.8314 12.4241 17.9966 12.9735 17.7224 13.3589ZM17.8314 10.2771C14.3114 8.18839 8.42629 7.96817 5.0703 9.01527C4.81508 9.08881 4.54135 9.0612 4.30596 8.93817C4.07057 8.81515 3.89162 8.60617 3.8063 8.35464C3.73145 8.09912 3.75829 7.82455 3.88121 7.58836C4.00413 7.35217 4.2136 7.17265 4.46583 7.08734C8.37124 5.93234 14.8069 6.15145 18.8774 8.57485C19.3718 8.84901 19.5369 9.50964 19.2617 10.004C18.9864 10.3894 18.3269 10.5523 17.8314 10.2771Z" fill="white" fill-opacity="0.71"/>
</svg>
