<svg width="23" height="22" viewBox="0 0 23 22" fill="none" xmlns="http://www.w3.org/2000/svg">
<path d="M20.645 6.2163C20.655 6.44383 20.6587 6.67417 20.6587 6.9017C20.6587 13.9101 15.9125 21.9888 7.23375 21.9888C4.5675 21.9888 2.08875 21.111 0 19.6053C1.23547 19.7732 2.48827 19.6659 3.6868 19.2894C4.88532 18.913 6.00608 18.2749 6.985 17.4115C6.00052 17.3906 5.04647 17.0246 4.25622 16.3645C3.46598 15.7045 2.87905 14.7835 2.5775 13.7303C3.28508 13.879 4.0133 13.8478 4.70875 13.6391C3.64076 13.3957 2.6805 12.745 1.99068 11.7971C1.30087 10.8493 0.92393 9.66262 0.92375 8.43821V8.3722C1.579 8.78175 2.31183 9.00951 3.06125 9.03653C2.06109 8.28734 1.3531 7.13754 1.08177 5.82179C0.810445 4.50603 0.996246 3.12354 1.60125 1.95647C2.78599 3.59476 4.26419 4.9347 5.93984 5.88927C7.6155 6.84384 9.45113 7.39168 11.3275 7.4972C11.2463 7.1006 11.2056 6.69489 11.2062 6.28793C11.2062 5.59192 11.3283 4.90272 11.5654 4.25971C11.8025 3.61669 12.15 3.03246 12.588 2.54037C13.0261 2.04828 13.5462 1.65797 14.1185 1.39175C14.6909 1.12552 15.3043 0.988592 15.9237 0.988777C16.5693 0.987594 17.2082 1.13546 17.8008 1.42321C18.3934 1.71096 18.9271 2.13244 19.3687 2.66153C20.4252 2.42655 21.4383 1.99152 22.365 1.37501C22.0126 2.60283 21.2752 3.64498 20.29 4.3076C21.2253 4.18301 22.1388 3.9018 23 3.47333C22.3673 4.53855 21.5697 5.46759 20.645 6.2163V6.2163Z" fill="white" fill-opacity="0.71"/>
</svg>
