<svg width="33" height="23" viewBox="0 0 33 23" fill="none" xmlns="http://www.w3.org/2000/svg">
<path d="M31.6735 3.92539C31.4913 3.25992 31.1341 2.65305 30.6377 2.16552C30.1413 1.67799 29.5231 1.32689 28.8449 1.14737C26.3485 0.48877 16.3413 0.48877 16.3413 0.48877C16.3413 0.48877 6.33417 0.488769 3.83774 1.14386C3.15924 1.3228 2.54068 1.67371 2.04419 2.16133C1.54769 2.64895 1.19073 3.25613 1.00917 3.92189C0.341308 6.37412 0.341309 11.4888 0.341309 11.4888C0.341309 11.4888 0.341308 16.6034 1.00917 19.0521C1.37702 20.4044 2.46274 21.4693 3.83774 21.8302C6.33417 22.4888 16.3413 22.4888 16.3413 22.4888C16.3413 22.4888 26.3485 22.4888 28.8449 21.8302C30.2235 21.4693 31.3056 20.4044 31.6735 19.0521C32.3413 16.6034 32.3413 11.4888 32.3413 11.4888C32.3413 11.4888 32.3413 6.37412 31.6735 3.92539ZM13.1627 16.183V6.7945L21.4485 11.4537L13.1627 16.183Z" fill="white" fill-opacity="0.71"/>
</svg>
