<svg width="2243" height="1001" viewBox="0 0 1143 1001" fill="none" xmlns="http://www.w3.org/2000/svg">
<line opacity="0.2" x1="-590.973" y1="420.121" x2="1729.97" y2="420.121" stroke="white" stroke-opacity="0.2" stroke-width="1.40274"/>
<line opacity="0.2" x1="-590.973" y1="314.915" x2="1729.97" y2="314.915" stroke="white" stroke-opacity="0.2" stroke-width="1.40274"/>
<line opacity="0.2" x1="-590.973" y1="209.71" x2="1729.97" y2="209.71" stroke="white" stroke-opacity="0.2" stroke-width="1.40274"/>
<line opacity="0.2" x1="-590.973" y1="104.504" x2="1729.97" y2="104.504" stroke="white" stroke-opacity="0.2" stroke-width="1.40274"/>
<line opacity="0.2" x1="-590.973" y1="-0.70137" x2="1729.97" y2="-0.701193" stroke="white" stroke-width="1.40274"/>
<line opacity="0.2" x1="-590.973" y1="507.09" x2="1729.97" y2="507.091" stroke="white" stroke-opacity="0.2" stroke-width="1.40274"/>
<line opacity="0.2" x1="-590.973" y1="592.658" x2="1729.97" y2="592.658" stroke="white" stroke-opacity="0.2" stroke-width="1.40274"/>
<line opacity="0.2" x1="-590.973" y1="679.627" x2="1729.97" y2="679.628" stroke="white" stroke-opacity="0.2" stroke-width="1.40274"/>
<line opacity="0.2" x1="-590.973" y1="766.597" x2="1729.97" y2="766.597" stroke="white" stroke-opacity="0.2" stroke-width="1.40274"/>
<line opacity="0.2" x1="-590.973" y1="852.164" x2="1729.97" y2="852.165" stroke="white" stroke-opacity="0.2" stroke-width="1.40274"/>
<line opacity="0.2" x1="-590.973" y1="937.731" x2="1729.97" y2="937.732" stroke="white" stroke-opacity="0.2" stroke-width="1.40274"/>
<line opacity="0.2" x1="-687.2765" y1="53.3041" x2="-687.2765" y2="1000.15" stroke="white" stroke-opacity="0.2" stroke-width="1.40274"/>
<line opacity="0.2" x1="-587.2765" y1="53.3041" x2="-587.2765" y2="1000.15" stroke="white" stroke-opacity="0.2" stroke-width="1.40274"/>
<line opacity="0.2" x1="-487.2765" y1="53.3041" x2="-487.2765" y2="1000.15" stroke="white" stroke-opacity="0.2" stroke-width="1.40274"/>
<line opacity="0.2" x1="-387.2765" y1="53.3041" x2="-387.2765" y2="1000.15" stroke="white" stroke-opacity="0.2" stroke-width="1.40274"/>
<line opacity="0.2" x1="-287.2765" y1="53.3041" x2="-287.2765" y2="1000.15" stroke="white" stroke-opacity="0.2" stroke-width="1.40274"/>
<line opacity="0.2" x1="-187.2765" y1="53.3041" x2="-187.2765" y2="1000.15" stroke="white" stroke-opacity="0.2" stroke-width="1.40274"/>
<line opacity="0.2" x1="-87.2765" y1="53.3041" x2="-87.2765" y2="1000.15" stroke="white" stroke-opacity="0.2" stroke-width="1.40274"/>
<line opacity="0.2" x1="13.7205" y1="53.3041" x2="13.7205" y2="1000.15" stroke="white" stroke-opacity="0.2" stroke-width="1.40274"/>
<line opacity="0.2" x1="114.718" y1="53.3041" x2="114.718" y2="1000.15" stroke="white" stroke-opacity="0.2" stroke-width="1.40274"/>
<line opacity="0.2" x1="215.715" y1="53.3041" x2="215.715" y2="1000.15" stroke="white" stroke-opacity="0.2" stroke-width="1.40274"/>
<line opacity="0.2" x1="316.712" y1="53.3041" x2="316.712" y2="1000.15" stroke="white" stroke-opacity="0.2" stroke-width="1.40274"/>
<line opacity="0.2" x1="417.71" y1="53.3041" x2="417.71" y2="1000.15" stroke="white" stroke-opacity="0.2" stroke-width="1.40274"/>
<line opacity="0.2" x1="518.707" y1="53.3041" x2="518.707" y2="1000.15" stroke="white" stroke-opacity="0.2" stroke-width="1.40274"/>
<line opacity="0.2" x1="619.704" y1="53.3041" x2="619.704" y2="1000.15" stroke="white" stroke-opacity="0.2" stroke-width="1.40274"/>
<line opacity="0.2" x1="720.701" y1="53.3041" x2="720.701" y2="1000.15" stroke="white" stroke-opacity="0.2" stroke-width="1.40274"/>
<line opacity="0.2" x1="821.699" y1="53.3041" x2="821.699" y2="1000.15" stroke="white" stroke-opacity="0.2" stroke-width="1.40274"/>
<line opacity="0.2" x1="922.696" y1="53.3041" x2="922.696" y2="1000.15" stroke="white" stroke-opacity="0.2" stroke-width="1.40274"/>
<line opacity="0.2" x1="1023.69" y1="53.3041" x2="1023.69" y2="1000.15" stroke="white" stroke-opacity="0.2" stroke-width="1.40274"/>
<line opacity="0.2" x1="1124.69" y1="53.3041" x2="1124.69" y2="1000.15" stroke="white" stroke-opacity="0.2" stroke-width="1.40274"/>
<line opacity="0.2" x1="1225.69" y1="53.3041" x2="1225.69" y2="1000.15" stroke="white" stroke-opacity="0.2" stroke-width="1.40274"/>
<line opacity="0.2" x1="1326.68" y1="53.3041" x2="1326.68" y2="1000.15" stroke="white" stroke-opacity="0.2" stroke-width="1.40274"/>
<line opacity="0.2" x1="1427.68" y1="53.3041" x2="1427.68" y2="1000.15" stroke="white" stroke-opacity="0.2" stroke-width="1.40274"/>
<line opacity="0.2" x1="1528.67" y1="53.3041" x2="1528.67" y2="1000.15" stroke="white" stroke-opacity="0.2" stroke-width="1.40274"/>
<line opacity="0.2" x1="1628.67" y1="53.3041" x2="1628.67" y2="1000.15" stroke="white" stroke-opacity="0.2" stroke-width="1.40274"/>
<line opacity="0.2" x1="1728.67" y1="53.3041" x2="1728.67" y2="1000.15" stroke="white" stroke-opacity="0.2" stroke-width="1.40274"/>
<line opacity="0.2" x1="1828.67" y1="53.3041" x2="1828.67" y2="1000.15" stroke="white" stroke-opacity="0.2" stroke-width="1.40274"/>
<line opacity="0.2" x1="1928.67" y1="53.3041" x2="1928.67" y2="1000.15" stroke="white" stroke-opacity="0.2" stroke-width="1.40274"/>

</svg>
