<svg width="990" height="824" viewBox="0 0 990 824" fill="none" xmlns="http://www.w3.org/2000/svg">
<g filter="url(#filter0_d_13_2105)">
<path fill-rule="evenodd" clip-rule="evenodd" d="M983.456 56.7572C984.676 16.7726 936.042 -12.2725 897.087 5.17544L34.6798 391.444C7.19372 403.755 -2.16699 434.451 13.7721 460.004L132.132 649.761C137.649 658.605 145.777 666.043 155.552 671.193L408.971 804.706C426.405 813.891 447.214 814.85 464.179 807.251L939.666 594.283C956.932 586.549 967.775 571.049 968.315 553.326L975.749 309.509L653.262 453.949L618.669 398.489L977.943 237.572L983.456 56.7572Z" fill="url(#paint0_linear_13_2105)" fill-opacity="0.44" shape-rendering="crispEdges"/>
</g>
<defs>
<filter id="filter0_d_13_2105" x="0.259792" y="0" width="988.959" height="823.821" filterUnits="userSpaceOnUse" color-interpolation-filters="sRGB">
<feFlood flood-opacity="0" result="BackgroundImageFix"/>
<feColorMatrix in="SourceAlpha" type="matrix" values="0 0 0 0 0 0 0 0 0 0 0 0 0 0 0 0 0 120 0  0" result="hardAlpha"/>
<feOffset dy="5.74021"/>
<feGaussianBlur stdDeviation="2.8701"/>
<feComposite in2="hardAlpha" operator="out"/>
<feColorMatrix type="matrix" values="0 0 0 0 0.239216 0 0 0 0 0.686275 0 0 0 0 0.529412 0 0 0 1 0"/>
<feBlend mode="normal" in2="BackgroundImageFix" result="effect1_dropShadow_13_2105"/>
<feBlend mode="normal" in="SourceGraphic" in2="effect1_dropShadow_13_2105" result="shape"/>
</filter>
<linearGradient id="paint0_linear_13_2105" x1="311.724" y1="783.918" x2="919.946" y2="142.422" gradientUnits="userSpaceOnUse">
<stop stop-color="#79FFBC" />
<stop offset="1" stop-color="#" stop-opacity="0"/>
</linearGradient>
</defs>
</svg>
