<svg width="168" height="46" viewBox="0 0 168 46" fill="none" xmlns="http://www.w3.org/2000/svg">
<path d="M44.4646 2.44644C45.8933 1.80653 47.677 2.87177 47.6323 4.33824L47.2511 16.8387C47.2313 17.4887 46.8336 18.0572 46.2004 18.3408L33.6755 23.9507C33.0533 24.2294 32.2901 24.1942 31.6507 23.8573L25.1017 20.407C24.7431 20.2181 24.445 19.9453 24.2427 19.6209L21.3437 14.9732C20.7591 14.036 21.1025 12.9103 22.1105 12.4588L44.4646 2.44644Z" fill="#3BB078"/>
<rect width="1.79182" height="13.4386" transform="matrix(0.529236 0.848475 -0.912639 0.408768 49.9229 7.36505)" fill="black"/>
<path d="M11.2961 43.5536C9.86743 44.1935 8.08375 43.1282 8.12847 41.6618L8.50316 29.3735C8.52298 28.7235 8.92065 28.155 9.55389 27.8714L21.8962 22.3433C22.5184 22.0646 23.2816 22.0998 23.921 22.4367L30.368 25.8333C30.7266 26.0222 31.0246 26.295 31.227 26.6193L34.0724 31.1811C34.657 32.1183 34.3137 33.2441 33.3056 33.6956L11.2961 43.5536Z" fill="#3BB078"/>
<rect width="1.76932" height="13.2699" transform="matrix(-0.529236 -0.848475 0.912639 -0.408768 5.86523 38.7151)" fill="black"/>
<path d="M83.5848 35.33C82.1328 35.33 80.7688 35.121 79.4928 34.703C78.2388 34.263 77.1498 33.647 76.2258 32.855L78.0408 30.677C78.8988 31.359 79.7788 31.887 80.6808 32.261C81.6048 32.613 82.5398 32.789 83.4858 32.789C84.6738 32.789 85.6418 32.558 86.3898 32.096C87.1378 31.634 87.5118 31.029 87.5118 30.281C87.5118 29.665 87.2918 29.181 86.8518 28.829C86.4118 28.477 85.7298 28.235 84.8058 28.103L81.7698 27.674C80.0978 27.432 78.8438 26.915 78.0078 26.123C77.1718 25.331 76.7538 24.275 76.7538 22.955C76.7538 21.943 77.0288 21.063 77.5788 20.315C78.1288 19.545 78.8988 18.951 79.8888 18.533C80.8788 18.093 82.0338 17.873 83.3538 17.873C84.5638 17.873 85.7298 18.049 86.8518 18.401C87.9738 18.753 89.0518 19.303 90.0858 20.051L88.4028 22.229C87.4788 21.613 86.5768 21.162 85.6968 20.876C84.8388 20.59 83.9698 20.447 83.0898 20.447C82.0778 20.447 81.2638 20.667 80.6478 21.107C80.0318 21.525 79.7238 22.075 79.7238 22.757C79.7238 23.373 79.9328 23.857 80.3508 24.209C80.7908 24.539 81.5058 24.77 82.4958 24.902L85.5318 25.331C87.2038 25.573 88.4688 26.09 89.3268 26.882C90.1848 27.652 90.6138 28.697 90.6138 30.017C90.6138 31.029 90.3058 31.942 89.6898 32.756C89.0738 33.548 88.2378 34.175 87.1818 34.637C86.1258 35.099 84.9268 35.33 83.5848 35.33ZM93.1496 41.732V18.203H96.4166V19.82C97.8246 18.566 99.5406 17.939 101.565 17.939C103.149 17.939 104.579 18.324 105.855 19.094C107.153 19.864 108.176 20.898 108.924 22.196C109.672 23.494 110.046 24.957 110.046 26.585C110.046 28.213 109.661 29.687 108.891 31.007C108.143 32.305 107.12 33.339 105.822 34.109C104.546 34.879 103.105 35.264 101.499 35.264C100.575 35.264 99.6836 35.121 98.8256 34.835C97.9676 34.527 97.1756 34.098 96.4496 33.548V41.732H93.1496ZM101.136 32.393C102.214 32.393 103.171 32.14 104.007 31.634C104.865 31.128 105.547 30.446 106.053 29.588C106.559 28.708 106.812 27.718 106.812 26.618C106.812 25.518 106.559 24.528 106.053 23.648C105.547 22.768 104.865 22.075 104.007 21.569C103.171 21.063 102.214 20.81 101.136 20.81C100.19 20.81 99.3096 20.986 98.4956 21.338C97.6816 21.69 96.9996 22.185 96.4496 22.823V30.413C96.9996 31.029 97.6816 31.513 98.4956 31.865C99.3316 32.217 100.212 32.393 101.136 32.393ZM121.247 35.297C119.597 35.297 118.101 34.912 116.759 34.142C115.439 33.372 114.383 32.327 113.591 31.007C112.821 29.687 112.436 28.213 112.436 26.585C112.436 24.979 112.81 23.527 113.558 22.229C114.306 20.909 115.318 19.864 116.594 19.094C117.87 18.302 119.289 17.906 120.851 17.906C122.413 17.906 123.799 18.302 125.009 19.094C126.219 19.864 127.176 20.92 127.88 22.262C128.606 23.582 128.969 25.078 128.969 26.75V27.674H115.736C115.912 28.598 116.253 29.423 116.759 30.149C117.287 30.875 117.947 31.447 118.739 31.865C119.553 32.283 120.433 32.492 121.379 32.492C122.193 32.492 122.974 32.371 123.722 32.129C124.492 31.865 125.13 31.491 125.636 31.007L127.748 33.086C126.758 33.834 125.735 34.395 124.679 34.769C123.645 35.121 122.501 35.297 121.247 35.297ZM115.769 25.199H125.702C125.57 24.319 125.262 23.549 124.778 22.889C124.316 22.207 123.733 21.679 123.029 21.305C122.347 20.909 121.599 20.711 120.785 20.711C119.949 20.711 119.179 20.898 118.475 21.272C117.771 21.646 117.177 22.174 116.693 22.856C116.231 23.516 115.923 24.297 115.769 25.199ZM139.898 35.264C138.336 35.264 136.906 34.879 135.608 34.109C134.31 33.339 133.287 32.305 132.539 31.007C131.791 29.687 131.417 28.213 131.417 26.585C131.417 24.957 131.791 23.494 132.539 22.196C133.309 20.898 134.343 19.864 135.641 19.094C136.939 18.324 138.38 17.939 139.964 17.939C140.888 17.939 141.779 18.082 142.637 18.368C143.495 18.654 144.287 19.072 145.013 19.622V11.9L148.313 11.273V35H145.046V33.383C143.616 34.637 141.9 35.264 139.898 35.264ZM140.327 32.393C141.295 32.393 142.175 32.217 142.967 31.865C143.781 31.513 144.463 31.007 145.013 30.347V22.79C144.463 22.174 143.781 21.69 142.967 21.338C142.175 20.964 141.295 20.777 140.327 20.777C139.271 20.777 138.314 21.03 137.456 21.536C136.598 22.042 135.916 22.735 135.41 23.615C134.904 24.473 134.651 25.452 134.651 26.552C134.651 27.652 134.904 28.642 135.41 29.522C135.916 30.402 136.598 31.106 137.456 31.634C138.314 32.14 139.271 32.393 140.327 32.393ZM150.34 35L156.874 26.387L150.604 18.203H154.465L158.788 23.945L163.111 18.203H166.84L160.636 26.354L167.236 35H163.375L158.722 28.796L154.069 35H150.34Z" fill="white"/>
</svg>
